<svg viewBox="0 0 180 180" xmlns="http://www.w3.org/2000/svg" role="img" aria-label="Riverland Studio">
  <rect width="180" height="180" rx="36" fill="#0A0A0B"/>
  <path d="M6.60 -0.00 L6.60 -3.96 Q11.16 -4.20 12.82 -6.06 Q14.51 -7.91 14.70 -11.21 Q14.89 -14.51 14.89 -18.71 L14.89 -70.56 Q14.89 -72.96 15.00 -75.17 Q15.11 -77.40 15.24 -79.20 Q13.09 -79.09 10.91 -78.96 Q8.76 -78.84 6.60 -78.71 L6.60 -84.00 Q13.31 -84.11 20.21 -84.22 Q27.11 -84.36 34.09 -84.11 Q45.71 -84.00 52.86 -81.41 Q60.00 -78.84 63.36 -74.10 Q66.71 -69.36 66.71 -62.64 Q66.84 -57.96 64.97 -53.10 Q63.11 -48.24 58.26 -44.40 Q53.40 -40.56 44.29 -38.64 Q46.69 -36.96 48.49 -34.31 Q50.29 -31.69 52.56 -28.20 L60.71 -15.36 Q62.76 -12.11 64.67 -9.53 Q66.60 -6.96 69.11 -5.46 Q71.64 -3.96 75.36 -3.96 L75.36 -0.00 L60.24 -0.00 Q56.76 -3.11 54.41 -6.22 Q52.09 -9.36 49.56 -13.31 L41.51 -26.16 Q39.96 -28.69 37.97 -31.99 Q36.00 -35.29 33.49 -37.56 Q31.56 -37.44 29.46 -37.44 Q27.36 -37.44 25.31 -37.56 L25.31 -14.29 Q25.31 -11.04 25.26 -8.70 Q25.20 -6.36 24.96 -4.80 Q26.40 -4.91 27.84 -4.97 Q29.29 -5.04 30.71 -5.16 Q32.16 -5.29 33.60 -5.29 L33.60 -0.00 L6.60 -0.00 Z M32.76 -42.00 Q39.36 -42.24 44.32 -44.16 Q49.31 -46.09 52.20 -50.29 Q55.09 -54.49 55.09 -61.31 Q55.09 -65.89 53.81 -69.30 Q52.56 -72.71 49.91 -75.00 Q47.29 -77.29 43.20 -78.41 Q39.11 -79.56 33.60 -79.56 Q29.16 -79.56 27.41 -77.76 Q25.69 -75.96 25.50 -72.77 Q25.31 -69.60 25.31 -65.29 L25.31 -42.24 Q27.24 -42.11 28.97 -42.00 Q30.71 -41.89 32.76 -42.00 Z M129.12 -58.56 Q128.76 -64.31 126.36 -69.47 Q123.96 -74.64 119.40 -77.87 Q114.85 -81.11 107.76 -81.11 Q100.32 -81.11 96.36 -76.91 Q92.40 -72.71 92.40 -67.09 Q92.40 -62.04 95.27 -58.61 Q98.16 -55.20 102.77 -52.61 Q107.40 -50.04 112.56 -47.64 Q117.12 -45.60 121.67 -43.26 Q126.25 -40.91 129.96 -37.91 Q133.67 -34.91 135.88 -30.77 Q138.12 -26.64 138.12 -20.89 Q138.12 -14.29 134.82 -9.11 Q131.52 -3.96 125.27 -1.01 Q119.05 1.91 110.05 1.91 Q104.65 1.91 98.87 0.36 Q93.12 -1.20 88.67 -4.20 L89.27 0.96 L83.05 0.96 L82.32 -24.60 L87.00 -24.60 Q87.60 -14.04 94.32 -8.57 Q101.05 -3.11 110.52 -3.11 Q115.20 -3.11 119.16 -4.86 Q123.12 -6.60 125.46 -9.96 Q127.80 -13.31 127.80 -18.11 Q127.80 -23.51 124.92 -27.11 Q122.05 -30.71 117.47 -33.36 Q112.92 -36.00 107.76 -38.40 Q103.20 -40.44 98.76 -42.71 Q94.32 -45.00 90.66 -47.94 Q87.00 -50.89 84.77 -54.96 Q82.56 -59.04 82.56 -64.80 Q82.56 -67.91 83.63 -71.51 Q84.72 -75.11 87.42 -78.41 Q90.12 -81.71 94.86 -83.81 Q99.60 -85.91 106.92 -85.91 Q111.47 -85.91 117.17 -84.66 Q122.87 -83.40 127.80 -79.80 L127.32 -84.96 L133.45 -84.96 L133.45 -58.56 L129.12 -58.56 Z" transform="translate(20.94 132.00)" fill="#F5F4F0"/>
</svg>
